<svg width="64" height="64" viewBox="0 0 64 64" fill="none" xmlns="http://www.w3.org/2000/svg">
  <rect width="64" height="64" rx="16" fill="#F4F0E8"/>
  <circle cx="32" cy="32" r="22" fill="#6F118B"/>
  <circle cx="32" cy="32" r="21" stroke="#E8D8A8" stroke-width="2"/>
  <path d="M25.2 25.8C27 23.93 29.18 23 31.74 23C34.2 23 36.24 23.7 37.86 25.08L35.5 27.92C34.37 26.99 33.1 26.52 31.68 26.52C30.17 26.52 28.89 27.08 27.86 28.2C26.82 29.31 26.3 30.66 26.3 32.24C26.3 33.88 26.8 35.27 27.8 36.42C28.8 37.56 30.11 38.13 31.74 38.13C33.39 38.13 34.8 37.54 35.96 36.36L38.38 39.08C36.65 40.92 34.4 41.84 31.62 41.84C29.07 41.84 26.91 40.94 25.14 39.14C23.38 37.32 22.5 35.04 22.5 32.3C22.5 29.56 23.4 27.4 25.2 25.8Z" fill="#F4F0E8"/>
  <path d="M39.62 22.98H43.5V41H39.62V22.98Z" fill="#F4F0E8"/>
  <path d="M44.96 22.98H48.84V41H44.96V22.98Z" fill="#F4F0E8"/>
</svg>